<svg id="visual" viewBox="0 0 900 600" width="900" height="600" xmlns="http://www.w3.org/2000/svg"
     version="1.1">
    <g>
        <g transform="translate(301 527)">
            <path d="M94.3 -27.5C107.4 9.5 92.9 58.7 59.7 82.9C26.6 107.2 -25.1 106.5 -57.7 82.2C-90.3 57.8 -103.8 9.9 -91 -26.9C-78.2 -63.6 -39.1 -89.1 0.8 -89.4C40.6 -89.6 81.3 -64.6 94.3 -27.5Z"
                  stroke="#186332" fill="none" stroke-width="20"></path>
        </g>
        <g transform="translate(639 197)">
            <path d="M68.2 -21.7C76.2 2.5 62.1 34.3 38.3 51.4C14.4 68.4 -19.3 70.7 -41.2 55.2C-63 39.7 -73 6.3 -64.2 -19C-55.3 -44.3 -27.7 -61.5 1.2 -61.9C30.1 -62.3 60.2 -45.8 68.2 -21.7Z"
                  stroke="#186332" fill="none" stroke-width="20"></path>
        </g>
        <g transform="translate(754 476)">
            <path d="M68.9 -20.9C77.4 3.8 64.2 36.9 41 53C17.8 69 -15.4 68 -37.7 51.8C-60.1 35.6 -71.6 4.3 -63.5 -19.8C-55.4 -43.9 -27.7 -60.9 1.3 -61.3C30.2 -61.7 60.4 -45.6 68.9 -20.9Z"
                  stroke="#186332" fill="none" stroke-width="20"></path>
        </g>
    </g>
</svg>