<svg id="visual" viewBox="0 0 900 600" width="900" height="600" xmlns="http://www.w3.org/2000/svg" xmlns:xlink="http://www.w3.org/1999/xlink" version="1.1"><rect x="0" y="0" width="900" height="600" fill="#ffffff"></rect><path d="M0 232L18.8 237.8C37.7 243.7 75.3 255.3 112.8 245.2C150.3 235 187.7 203 225.2 189.3C262.7 175.7 300.3 180.3 337.8 193.7C375.3 207 412.7 229 450.2 226.7C487.7 224.3 525.3 197.7 562.8 186C600.3 174.3 637.7 177.7 675.2 179.2C712.7 180.7 750.3 180.3 787.8 183.2C825.3 186 862.7 192 881.3 195L900 198L900 0L881.3 0C862.7 0 825.3 0 787.8 0C750.3 0 712.7 0 675.2 0C637.7 0 600.3 0 562.8 0C525.3 0 487.7 0 450.2 0C412.7 0 375.3 0 337.8 0C300.3 0 262.7 0 225.2 0C187.7 0 150.3 0 112.8 0C75.3 0 37.7 0 18.8 0L0 0Z" fill="#3fab65"></path><path d="M0 202L18.8 202.5C37.7 203 75.3 204 112.8 191.7C150.3 179.3 187.7 153.7 225.2 154.7C262.7 155.7 300.3 183.3 337.8 184.5C375.3 185.7 412.7 160.3 450.2 148.5C487.7 136.7 525.3 138.3 562.8 155.2C600.3 172 637.7 204 675.2 209.7C712.7 215.3 750.3 194.7 787.8 190.7C825.3 186.7 862.7 199.3 881.3 205.7L900 212L900 0L881.3 0C862.7 0 825.3 0 787.8 0C750.3 0 712.7 0 675.2 0C637.7 0 600.3 0 562.8 0C525.3 0 487.7 0 450.2 0C412.7 0 375.3 0 337.8 0C300.3 0 262.7 0 225.2 0C187.7 0 150.3 0 112.8 0C75.3 0 37.7 0 18.8 0L0 0Z" fill="#399e5c"></path><path d="M0 176L18.8 170.7C37.7 165.3 75.3 154.7 112.8 144C150.3 133.3 187.7 122.7 225.2 123.5C262.7 124.3 300.3 136.7 337.8 143C375.3 149.3 412.7 149.7 450.2 145.3C487.7 141 525.3 132 562.8 136.7C600.3 141.3 637.7 159.7 675.2 167C712.7 174.3 750.3 170.7 787.8 163.3C825.3 156 862.7 145 881.3 139.5L900 134L900 0L881.3 0C862.7 0 825.3 0 787.8 0C750.3 0 712.7 0 675.2 0C637.7 0 600.3 0 562.8 0C525.3 0 487.7 0 450.2 0C412.7 0 375.3 0 337.8 0C300.3 0 262.7 0 225.2 0C187.7 0 150.3 0 112.8 0C75.3 0 37.7 0 18.8 0L0 0Z" fill="#329253"></path><path d="M0 130L18.8 129.3C37.7 128.7 75.3 127.3 112.8 126.7C150.3 126 187.7 126 225.2 125.3C262.7 124.7 300.3 123.3 337.8 115.8C375.3 108.3 412.7 94.7 450.2 93.7C487.7 92.7 525.3 104.3 562.8 107.5C600.3 110.7 637.7 105.3 675.2 110.5C712.7 115.7 750.3 131.3 787.8 141C825.3 150.7 862.7 154.3 881.3 156.2L900 158L900 0L881.3 0C862.7 0 825.3 0 787.8 0C750.3 0 712.7 0 675.2 0C637.7 0 600.3 0 562.8 0C525.3 0 487.7 0 450.2 0C412.7 0 375.3 0 337.8 0C300.3 0 262.7 0 225.2 0C187.7 0 150.3 0 112.8 0C75.3 0 37.7 0 18.8 0L0 0Z" fill="#2c864b"></path><path d="M0 104L18.8 103.2C37.7 102.3 75.3 100.7 112.8 94.2C150.3 87.7 187.7 76.3 225.2 77.5C262.7 78.7 300.3 92.3 337.8 96.3C375.3 100.3 412.7 94.7 450.2 87.7C487.7 80.7 525.3 72.3 562.8 76.7C600.3 81 637.7 98 675.2 109.2C712.7 120.3 750.3 125.7 787.8 120.8C825.3 116 862.7 101 881.3 93.5L900 86L900 0L881.3 0C862.7 0 825.3 0 787.8 0C750.3 0 712.7 0 675.2 0C637.7 0 600.3 0 562.8 0C525.3 0 487.7 0 450.2 0C412.7 0 375.3 0 337.8 0C300.3 0 262.7 0 225.2 0C187.7 0 150.3 0 112.8 0C75.3 0 37.7 0 18.8 0L0 0Z" fill="#257a42"></path><path d="M0 74L18.8 75.7C37.7 77.3 75.3 80.7 112.8 75.2C150.3 69.7 187.7 55.3 225.2 55.8C262.7 56.3 300.3 71.7 337.8 71C375.3 70.3 412.7 53.7 450.2 49.8C487.7 46 525.3 55 562.8 62.7C600.3 70.3 637.7 76.7 675.2 81.2C712.7 85.7 750.3 88.3 787.8 79.8C825.3 71.3 862.7 51.7 881.3 41.8L900 32L900 0L881.3 0C862.7 0 825.3 0 787.8 0C750.3 0 712.7 0 675.2 0C637.7 0 600.3 0 562.8 0C525.3 0 487.7 0 450.2 0C412.7 0 375.3 0 337.8 0C300.3 0 262.7 0 225.2 0C187.7 0 150.3 0 112.8 0C75.3 0 37.7 0 18.8 0L0 0Z" fill="#1f6e3a"></path><path d="M0 26L18.8 24.2C37.7 22.3 75.3 18.7 112.8 20.5C150.3 22.3 187.7 29.7 225.2 34.2C262.7 38.7 300.3 40.3 337.8 41.8C375.3 43.3 412.7 44.7 450.2 41.2C487.7 37.7 525.3 29.3 562.8 25.3C600.3 21.3 637.7 21.7 675.2 21.7C712.7 21.7 750.3 21.3 787.8 20.8C825.3 20.3 862.7 19.7 881.3 19.3L900 19L900 0L881.3 0C862.7 0 825.3 0 787.8 0C750.3 0 712.7 0 675.2 0C637.7 0 600.3 0 562.8 0C525.3 0 487.7 0 450.2 0C412.7 0 375.3 0 337.8 0C300.3 0 262.7 0 225.2 0C187.7 0 150.3 0 112.8 0C75.3 0 37.7 0 18.8 0L0 0Z" fill="#186332"></path></svg>