<svg id="visual" viewBox="0 0 900 600" width="900" height="600" xmlns="http://www.w3.org/2000/svg" xmlns:xlink="http://www.w3.org/1999/xlink" version="1.1"><path d="M0 334L18.8 347.2C37.7 360.3 75.3 386.7 112.8 385.3C150.3 384 187.7 355 225.2 338.3C262.7 321.7 300.3 317.3 337.8 301.3C375.3 285.3 412.7 257.7 450.2 256C487.7 254.3 525.3 278.7 562.8 284C600.3 289.3 637.7 275.7 675.2 266.5C712.7 257.3 750.3 252.7 787.8 263.3C825.3 274 862.7 300 881.3 313L900 326L900 0L881.3 0C862.7 0 825.3 0 787.8 0C750.3 0 712.7 0 675.2 0C637.7 0 600.3 0 562.8 0C525.3 0 487.7 0 450.2 0C412.7 0 375.3 0 337.8 0C300.3 0 262.7 0 225.2 0C187.7 0 150.3 0 112.8 0C75.3 0 37.7 0 18.8 0L0 0Z" fill="#3ec26c"></path><path d="M0 186L18.8 201C37.7 216 75.3 246 112.8 260.7C150.3 275.3 187.7 274.7 225.2 260.2C262.7 245.7 300.3 217.3 337.8 203.5C375.3 189.7 412.7 190.3 450.2 194.3C487.7 198.3 525.3 205.7 562.8 212.3C600.3 219 637.7 225 675.2 221.2C712.7 217.3 750.3 203.7 787.8 213.8C825.3 224 862.7 258 881.3 275L900 292L900 0L881.3 0C862.7 0 825.3 0 787.8 0C750.3 0 712.7 0 675.2 0C637.7 0 600.3 0 562.8 0C525.3 0 487.7 0 450.2 0C412.7 0 375.3 0 337.8 0C300.3 0 262.7 0 225.2 0C187.7 0 150.3 0 112.8 0C75.3 0 37.7 0 18.8 0L0 0Z" fill="#36ae60"></path><path d="M0 149L18.8 170.5C37.7 192 75.3 235 112.8 253.5C150.3 272 187.7 266 225.2 258.3C262.7 250.7 300.3 241.3 337.8 231.7C375.3 222 412.7 212 450.2 212.3C487.7 212.7 525.3 223.3 562.8 224.3C600.3 225.3 637.7 216.7 675.2 213.7C712.7 210.7 750.3 213.3 787.8 224.7C825.3 236 862.7 256 881.3 266L900 276L900 0L881.3 0C862.7 0 825.3 0 787.8 0C750.3 0 712.7 0 675.2 0C637.7 0 600.3 0 562.8 0C525.3 0 487.7 0 450.2 0C412.7 0 375.3 0 337.8 0C300.3 0 262.7 0 225.2 0C187.7 0 150.3 0 112.8 0C75.3 0 37.7 0 18.8 0L0 0Z" fill="#2f9b54"></path><path d="M0 240L18.8 222.3C37.7 204.7 75.3 169.3 112.8 151.5C150.3 133.7 187.7 133.3 225.2 150.3C262.7 167.3 300.3 201.7 337.8 215C375.3 228.3 412.7 220.7 450.2 207.2C487.7 193.7 525.3 174.3 562.8 175.3C600.3 176.3 637.7 197.7 675.2 208.5C712.7 219.3 750.3 219.7 787.8 201.8C825.3 184 862.7 148 881.3 130L900 112L900 0L881.3 0C862.7 0 825.3 0 787.8 0C750.3 0 712.7 0 675.2 0C637.7 0 600.3 0 562.8 0C525.3 0 487.7 0 450.2 0C412.7 0 375.3 0 337.8 0C300.3 0 262.7 0 225.2 0C187.7 0 150.3 0 112.8 0C75.3 0 37.7 0 18.8 0L0 0Z" fill="#278848"></path><path d="M0 150L18.8 149.5C37.7 149 75.3 148 112.8 150.8C150.3 153.7 187.7 160.3 225.2 165.2C262.7 170 300.3 173 337.8 161.5C375.3 150 412.7 124 450.2 118.7C487.7 113.3 525.3 128.7 562.8 139C600.3 149.3 637.7 154.7 675.2 147C712.7 139.3 750.3 118.7 787.8 120.3C825.3 122 862.7 146 881.3 158L900 170L900 0L881.3 0C862.7 0 825.3 0 787.8 0C750.3 0 712.7 0 675.2 0C637.7 0 600.3 0 562.8 0C525.3 0 487.7 0 450.2 0C412.7 0 375.3 0 337.8 0C300.3 0 262.7 0 225.2 0C187.7 0 150.3 0 112.8 0C75.3 0 37.7 0 18.8 0L0 0Z" fill="#1f753d"></path><path d="M0 84L18.8 88.7C37.7 93.3 75.3 102.7 112.8 105.7C150.3 108.7 187.7 105.3 225.2 92.5C262.7 79.7 300.3 57.3 337.8 45.7C375.3 34 412.7 33 450.2 42.3C487.7 51.7 525.3 71.3 562.8 78.5C600.3 85.7 637.7 80.3 675.2 69.5C712.7 58.7 750.3 42.3 787.8 47.3C825.3 52.3 862.7 78.7 881.3 91.8L900 105L900 0L881.3 0C862.7 0 825.3 0 787.8 0C750.3 0 712.7 0 675.2 0C637.7 0 600.3 0 562.8 0C525.3 0 487.7 0 450.2 0C412.7 0 375.3 0 337.8 0C300.3 0 262.7 0 225.2 0C187.7 0 150.3 0 112.8 0C75.3 0 37.7 0 18.8 0L0 0Z" fill="#186332"></path></svg>