<svg xmlns="http://www.w3.org/2000/svg" version="1.1"
     width="1000" height="297" viewBox="0 0 1000 297">
    <g transform="matrix(1,0,0,1,-0.6060594461890219,-0.32583080341345294)">
        <svg viewBox="0 0 396 118" data-background-color="#ffffff" preserveAspectRatio="xMidYMid meet" height="297"
             width="1000" xmlns="http://www.w3.org/2000/svg">
            <g id="tight-bounds" transform="matrix(1,0,0,1,0.23999954069086016,0.12945466263565208)">
                <svg viewBox="0 0 395.52 117.74100858165416" height="117.74100858165416" width="395.52">
                    <g>
                        <svg viewBox="0 0 614.1723055697917 182.83087252403712" height="117.74100858165416"
                             width="395.52">
                            <g transform="matrix(1,0,0,1,218.6523055697917,53.48121905468429)">
                                <svg viewBox="0 0 395.52 75.86843441466854" height="75.86843441466854" width="395.52">
                                    <g id="textblocktransform">
                                        <svg viewBox="0 0 395.52 75.86843441466854" height="75.86843441466854"
                                             width="395.52" id="textblock">
                                            <g>
                                                <svg viewBox="0 0 395.52 75.86843441466854" height="75.86843441466854"
                                                     width="395.52">
                                                    <g transform="matrix(1,0,0,1,0,0)">
                                                        <svg width="395.52"
                                                             viewBox="3.8299999237060547 -36.040000915527344 190.38999938964844 36.53000259399414"
                                                             height="75.86843441466854" data-palette-color="#096a2e">
                                                            <path d="M20.31-19.53L20.31-15.7 8.3-15.7 8.3 0 3.83 0 3.83-35.55 22.34-35.55 22.34-31.69 8.3-31.69 8.3-19.53 20.31-19.53ZM44.92 0L38.6-14.38 32.35-14.38 32.35 0 27.85 0 27.85-35.55 37.81-35.55Q43.04-35.55 45.73-32.82 48.41-30.1 48.41-24.85L48.41-24.85Q48.41-21.56 46.96-19.1 45.51-16.65 42.84-15.41L42.84-15.41 49.73-0.29 49.73 0 44.92 0ZM32.35-31.69L32.35-18.21 37.77-18.21Q40.57-18.21 42.25-20.02 43.92-21.83 43.92-24.85L43.92-24.85Q43.92-31.69 37.72-31.69L37.72-31.69 32.35-31.69ZM71.43-20.26L71.43-16.43 58.86-16.43 58.86-3.83 73.51-3.83 73.51 0 54.39 0 54.39-35.55 73.26-35.55 73.26-31.69 58.86-31.69 58.86-20.26 71.43-20.26ZM94.74-8.98L94.74-8.98Q94.74-11.65 93.3-13.06 91.86-14.48 88.1-15.82 84.34-17.16 82.35-18.64 80.36-20.12 79.37-22.01 78.39-23.9 78.39-26.34L78.39-26.34Q78.39-30.57 81.21-33.3 84.03-36.04 88.59-36.04L88.59-36.04Q91.72-36.04 94.16-34.63 96.6-33.23 97.92-30.74 99.24-28.25 99.24-25.27L99.24-25.27 94.74-25.27Q94.74-28.56 93.16-30.37 91.57-32.18 88.59-32.18L88.59-32.18Q85.88-32.18 84.39-30.66 82.9-29.15 82.9-26.42L82.9-26.42Q82.9-24.17 84.51-22.66 86.13-21.14 89.49-19.95L89.49-19.95Q94.74-18.21 97-15.67 99.26-13.13 99.26-9.03L99.26-9.03Q99.26-4.71 96.45-2.11 93.64 0.49 88.81 0.49L88.81 0.49Q85.71 0.49 83.09-0.87 80.46-2.22 78.96-4.68 77.46-7.13 77.46-10.3L77.46-10.3 81.95-10.3Q81.95-7.01 83.79-5.18 85.64-3.34 88.81-3.34L88.81-3.34Q91.76-3.34 93.25-4.86 94.74-6.37 94.74-8.98ZM128.38-35.55L128.38 0 123.89 0 123.89-16.43 109.58-16.43 109.58 0 105.12 0 105.12-35.55 109.58-35.55 109.58-20.26 123.89-20.26 123.89-35.55 128.38-35.55ZM140.78-35.55L140.78 0 136.32 0 136.32-35.55 140.78-35.55ZM165.1-19.53L165.1-15.7 153.09-15.7 153.09 0 148.62 0 148.62-35.55 167.12-35.55 167.12-31.69 153.09-31.69 153.09-19.53 165.1-19.53ZM174.62-35.55L181.89-17.7 189.17-35.55 194.22-35.55 184.11-13.26 184.11 0 179.65 0 179.65-13.26 169.54-35.55 174.62-35.55Z"
                                                                  opacity="1" transform="matrix(1,0,0,1,0,0)"
                                                                  fill="#096a2e" class="undefined-text-0"
                                                                  data-fill-palette-color="primary" id="text-0"></path>
                                                        </svg>
                                                    </g>
                                                </svg>
                                            </g>
                                        </svg>
                                    </g>
                                </svg>
                            </g>
                            <g>
                                <svg viewBox="0 0 182.83087252403712 182.83087252403712" height="182.83087252403712"
                                     width="182.83087252403712">
                                    <g>
                                        <svg></svg>
                                    </g>
                                    <g id="icon-0">
                                        <svg viewBox="0 0 182.83087252403712 182.83087252403712"
                                             height="182.83087252403712" width="182.83087252403712">
                                            <g>
                                                <path d="M0 91.415c0-50.487 40.928-91.415 91.415-91.415 50.487 0 91.415 40.928 91.416 91.415 0 50.487-40.928 91.415-91.416 91.416-50.487 0-91.415-40.928-91.415-91.416zM91.415 175.989c46.709 0 84.574-37.865 84.574-84.574 0-46.709-37.865-84.574-84.574-84.573-46.709 0-84.574 37.865-84.573 84.573 0 46.709 37.865 84.574 84.573 84.574z"
                                                      data-fill-palette-color="accent" fill="#096a2e"
                                                      stroke="transparent"></path>
                                            </g>
                                            <g transform="matrix(1,0,0,1,56.29990697186383,40.254864425279465)">
                                                <svg viewBox="0 0 70.23105858030947 102.32114367347819"
                                                     height="102.32114367347819" width="70.23105858030947">
                                                    <g>
                                                        <svg xmlns="http://www.w3.org/2000/svg" version="1.1" x="0"
                                                             y="0"
                                                             viewBox="15.680999755859375 0 68.63746643066406 99.99940490722656"
                                                             enable-background="new 0 0 100 100" xml:space="preserve"
                                                             height="102.32114367347819" width="70.23105858030947"
                                                             class="icon-s-0" data-fill-palette-color="accent" id="s-0"><path fill="#096a2e" d="M83.973 95.67L71.756 73.631c11.331-8.42 15.443-23.96 9.041-37.115C73.559 21.645 45.798 5.001 15.681 0c8.931 24.943 4.033 47.853 11.27 62.723 7.236 14.868 25.156 21.057 40.025 13.819 0.141-0.067 0.272-0.144 0.412-0.213l11.389 22.11c0.764 1.436 2.549 1.979 3.982 1.213C84.193 98.889 84.736 97.104 83.973 95.67z" data-fill-palette-color="accent"></path></svg>
                                                    </g>
                                                </svg>
                                            </g>
                                        </svg>
                                    </g>
                                </svg>
                            </g>
                        </svg>
                    </g>
                    <defs></defs>
                </svg>
                <rect width="395.52" height="117.74100858165416" fill="none" stroke="none" visibility="hidden"></rect>
            </g>
        </svg>
    </g>
</svg>