<svg id="visual" viewBox="0 0 900 600" width="900" height="600" xmlns="http://www.w3.org/2000/svg"
     version="1.1">
    <path d="M214 0L173 0L173 86L210 86L210 171L171 171L171 257L142 257L142 343L215 343L215 429L141 429L141 514L151 514L151 600L0 600L0 514L0 514L0 429L0 429L0 343L0 343L0 257L0 257L0 171L0 171L0 86L0 86L0 0L0 0Z"
          fill="#42b85f"></path>
    <path d="M136 0L96 0L96 86L162 86L162 171L134 171L134 257L103 257L103 343L129 343L129 429L155 429L155 514L125 514L125 600L0 600L0 514L0 514L0 429L0 429L0 343L0 343L0 257L0 257L0 171L0 171L0 86L0 86L0 0L0 0Z"
          fill="#399850"></path>
    <path d="M41 0L63 0L63 86L88 86L88 171L92 171L92 257L60 257L60 343L67 343L67 429L88 429L88 514L68 514L68 600L0 600L0 514L0 514L0 429L0 429L0 343L0 343L0 257L0 257L0 171L0 171L0 86L0 86L0 0L0 0Z"
          fill="#307a42"></path>
</svg>