<svg id="visual" viewBox="0 0 900 600" width="900" height="600" xmlns="http://www.w3.org/2000/svg" xmlns:xlink="http://www.w3.org/1999/xlink" version="1.1"><path d="M0 513L21.5 508.5C43 504 86 495 128.8 490.5C171.7 486 214.3 486 257.2 479.2C300 472.3 343 458.7 385.8 451.3C428.7 444 471.3 443 514.2 442.3C557 441.7 600 441.3 642.8 445.5C685.7 449.7 728.3 458.3 771.2 455.3C814 452.3 857 437.7 878.5 430.3L900 423L900 601L878.5 601C857 601 814 601 771.2 601C728.3 601 685.7 601 642.8 601C600 601 557 601 514.2 601C471.3 601 428.7 601 385.8 601C343 601 300 601 257.2 601C214.3 601 171.7 601 128.8 601C86 601 43 601 21.5 601L0 601Z" fill="#2f7a41" stroke-linecap="round" stroke-linejoin="miter"></path></svg>